<svg xmlns="http://www.w3.org/2000/svg" viewBox="0 -2 32 32" fill="#606060" x="0px" y="0px"><g data-name="Mail Box"><path d="M29,24H3a1,1,0,0,1,0-2H29a1,1,0,0,1,0,2Z"></path><path d="M24.48,20h-17a1,1,0,0,1-1-1.31,10,10,0,0,1,18.87,0A1,1,0,0,1,24.48,20Z"></path><path d="M16,9a1,1,0,0,1-1-1V6a1,1,0,0,1,2,0V8A1,1,0,0,1,16,9Z"></path><path d="M23.78,12.22a1,1,0,0,1-.71-1.71L24.49,9.1a1,1,0,0,1,1.41,1.41l-1.41,1.41A1,1,0,0,1,23.78,12.22Z"></path><path d="M8.22,12.22a1,1,0,0,1-.71-.29L6.1,10.51A1,1,0,0,1,7.51,9.1l1.41,1.41a1,1,0,0,1-.71,1.71Z"></path></g></svg>