<svg xmlns="http://www.w3.org/2000/svg" viewBox="0 0 95 46" fill="none">
  <path fill-rule="evenodd" clip-rule="evenodd" d="M85.9707 4.96329C83.5716 4.39541 81.3388 3.98886 80.1549 4.10723C78.1268 4.31 78.1361 5.42628 78.1287 5.37883C77.8282 3.36654 71.6346 3.13829 69.0138 2.8571C63.9693 2.31669 63.3448 5.72545 63.3394 5.67801C63.2127 4.4938 59.9737 2.11291 55.3213 1.98605C52.6774 1.91363 51.5425 1.64742 50.5005 2.11241C48.6901 2.92053 48.4797 4.74603 48.4547 4.71356C45.25 0.505174 37.9997 1.58599 35.6481 2.26574C33.6943 2.83013 33.823 4.55074 33.823 4.55074C33.823 4.55074 30.2336 1.62994 25.634 2.44255C21.8983 3.10283 19.2584 5.11262 18.0764 7.47254C18.0696 7.5115 14.8208 3.96788 7.96844 5.27445C7.61116 5.34237 2.55203 6.13251 1.82573 7.67332C1.28932 8.81407 1.23891 9.57473 1.59864 11.4177C1.72491 12.0625 2.01513 13.6418 2.24271 14.9309C3.33461 21.1121 4.16809 25.6301 4.39518 26.5586C4.63549 27.564 5.07694 28.4086 5.72102 29.0978L6.24519 29.6652L6.15024 29.9809C5.99901 30.4708 5.9672 31.4443 6.08074 31.9407C6.31469 32.9396 9.0481 41.5961 9.26931 42.0277C9.71713 42.8917 10.6201 43.6199 11.5735 43.8711C12.2744 44.0644 12.8484 44.026 15.7086 43.6134C17.1544 43.4007 17.8694 43.2493 19.667 43.059C32.5681 41.6935 48.8673 38.6988 75.6395 42.9302C75.688 42.9377 78.2785 43.2978 80.4124 43.6649C82.4831 44.0195 83.1394 44.0644 83.8026 43.8906C85.0335 43.5685 86.1131 42.5046 86.4538 41.2865C86.5673 40.8804 87.9313 31.9472 87.9817 31.264C88.0008 31.0122 87.9945 30.6516 87.9626 30.4578L87.9122 30.1037L88.1961 29.8715C89.2948 28.982 90.122 27.6994 90.469 26.3523C90.8541 24.831 90.488 23.02 89.5787 21.9627L89.3829 21.7374L89.5601 21.6021C90.2605 21.0796 91.1953 20.0742 91.7757 19.2302C93.2342 17.103 93.6889 14.1252 92.9626 11.5406C92.7482 10.7669 92.0787 9.41341 91.5741 8.71717C90.7088 7.53147 90.0926 6.90116 88.8803 6.17896C88.5142 5.9602 87.4605 5.3159 85.9707 4.96329Z" fill="#C83B50"/>
  <path fill-rule="evenodd" clip-rule="evenodd" d="M50.1673 27.1241H51.7649V30.3916C51.7649 34.0513 51.7457 33.8908 52.2337 34.2895C52.4175 34.4376 52.5443 34.4889 52.8298 34.5083C53.305 34.5402 53.6603 34.3728 53.9011 33.9935L54.0784 33.7234L54.0976 30.4883L54.1163 27.2527H54.5728C55.1561 27.2527 57.4441 27.3688 57.964 27.4202L58.3571 27.4585V31.5882V35.7174L58.5154 36.0389C58.7056 36.4182 59.0161 36.6499 59.3965 36.6883C59.9036 36.7461 60.3537 36.5084 60.5759 36.0583C60.6963 35.8201 60.7026 35.6656 60.7026 31.7233V27.639H60.9749C61.2221 27.639 61.9449 27.7097 63.8845 27.9026L64.626 27.9799L64.6452 30.8546L64.6644 33.7234L64.8418 33.9935C65.3361 34.759 66.49 34.6753 66.8575 33.8519C66.9652 33.6077 66.9779 33.3889 66.9779 30.9064V28.2306L67.2187 28.263C67.3455 28.2819 68.1504 28.3851 69.0065 28.4942L70.5593 28.7L70.5913 32.2376L70.6227 35.7752L70.7937 36.0648C71.2502 36.8558 72.3721 36.8558 72.8095 36.0648L72.9682 35.7752L72.9997 32.424L73.0316 29.0798L74.6921 29.35C75.5987 29.4975 76.4543 29.6455 76.5938 29.6779L76.8346 29.7357L76.8665 31.7876C76.898 33.7682 76.9044 33.8519 77.0376 34.0707C77.4371 34.7201 78.47 34.7785 78.9265 34.1734C79.1673 33.8519 79.2057 33.4981 79.212 31.7936V30.1922L79.5034 30.2371C79.96 30.2954 85.0244 31.4143 85.0942 31.4721C85.1134 31.4851 83.8077 40.2005 83.7443 40.4771C83.7124 40.6122 83.6996 40.6057 81.8932 40.2967C73.4119 38.8493 64.5946 37.9876 55.5365 37.7304C52.3669 37.6402 43.9933 37.6921 41.0522 37.8271C32.2348 38.2258 23.6013 39.0552 15.063 40.3355C14.036 40.4896 13.1869 40.6057 13.1741 40.5992C13.1171 40.5474 10.3657 31.6137 10.3976 31.5818C10.4546 31.5234 14.5495 30.5655 16.153 30.2371L16.3245 30.2052L16.3432 31.9291L16.3623 33.6526L16.5333 33.9551C16.9073 34.5916 17.7825 34.7201 18.3211 34.2123C18.6636 33.8843 18.6759 33.7941 18.6759 31.6909C18.6759 30.1858 18.6951 29.7487 18.7584 29.7292C18.9172 29.6649 22.131 29.1312 22.1816 29.1631C22.2067 29.176 22.2258 30.6747 22.2258 32.4948C22.2258 34.6818 22.2514 35.859 22.2956 35.9811C22.4416 36.3733 22.9295 36.7077 23.3669 36.7077C23.6396 36.7077 24.045 36.5213 24.2352 36.3155C24.5394 35.9746 24.5394 35.9811 24.5585 32.2506C24.5777 28.9896 24.5841 28.7324 24.6853 28.7324C24.7423 28.726 25.5856 28.6163 26.5487 28.4877L28.3045 28.2435L28.3237 30.9448L28.3429 33.6526L28.5139 33.9551C28.9896 34.772 30.2569 34.6753 30.5867 33.7941C30.6309 33.6785 30.6564 32.6364 30.6564 30.8162C30.6564 28.6358 30.6756 28.0118 30.739 27.9928C30.7768 27.9799 31.4171 27.9091 32.1459 27.8383C32.8815 27.7611 33.6295 27.6903 33.8132 27.6709L34.143 27.639V31.6072C34.143 34.296 34.168 35.6656 34.2128 35.8395C34.314 36.2253 34.7513 36.624 35.1253 36.6818C35.6639 36.7591 36.1268 36.5278 36.3612 36.0583C36.4816 35.8201 36.488 35.6656 36.488 31.665C36.488 29.3818 36.5071 27.5039 36.5391 27.4909C36.5641 27.4715 37.1538 27.4267 37.8511 27.3878C38.5485 27.3494 39.3534 27.3045 39.6448 27.2851L40.1647 27.2527V30.4175C40.1647 33.511 40.1647 33.5883 40.2979 33.8649C40.5008 34.2766 40.8428 34.4889 41.3372 34.4889C41.7873 34.4889 42.0665 34.3344 42.3264 33.9551L42.4783 33.7234L42.4974 30.4624L42.5166 27.2014L42.6557 27.163C42.7318 27.1436 43.4611 27.1241 44.266 27.1241H45.7427L45.7555 31.5494L45.7746 35.9811L45.9584 36.2188C46.4783 36.9136 47.4798 36.8298 47.9299 36.0583C48.0503 35.846 48.0567 35.7045 48.0754 31.4402L48.0946 27.0409L48.329 27.0857C48.4557 27.1052 49.2862 27.1241 50.1673 27.1241Z" fill="white"/>
  <path fill-rule="evenodd" clip-rule="evenodd" d="M54.5768 4.1022C55.8663 4.16696 56.4381 4.24477 57.372 4.49076C58.6049 4.80202 59.5196 5.27492 60.454 6.07164C62.3853 7.71727 62.868 10.7364 61.6357 13.4057C60.8604 15.0835 59.596 16.3732 57.8488 17.2798C56.7371 17.8501 55.752 18.1674 54.3413 18.3878C54.0492 18.433 54.062 18.3813 53.9793 20.2146C53.9029 21.925 53.8079 22.1846 53.1981 22.5084C52.8804 22.6766 51.5012 22.6896 50.9993 22.534C50.6308 22.4175 50.2688 22.1324 50.1161 21.8281C49.894 21.3874 49.9511 20.1368 50.6372 10.7103C50.7579 9.05215 50.9042 7.01142 50.9549 6.17555C51.0121 5.33969 51.0884 4.56858 51.1264 4.47169C51.2155 4.23172 51.4441 4.08262 51.8066 4.02438C52.0923 3.9792 52.4356 3.99225 54.5768 4.1022Z" fill="white"/>
  <path fill-rule="evenodd" clip-rule="evenodd" d="M42.7648 4.30749C44.3758 4.5722 45.662 5.20519 46.6364 6.21248C47.2793 6.878 47.7227 7.70465 48.016 8.80201C48.1472 9.3059 48.2034 10.8041 48.1099 11.385C47.9352 12.4313 47.529 13.4967 46.9607 14.4009C45.7994 16.2478 43.7702 17.6619 41.3663 18.2884C41.0477 18.3725 40.7728 18.4501 40.7602 18.4631C40.7481 18.4756 40.7665 19.1796 40.8043 20.0258C40.873 21.8142 40.8478 21.9628 40.4606 22.3631C40.1173 22.7249 39.8361 22.796 38.7997 22.8025C38.044 22.809 37.9317 22.796 37.6945 22.6669C37.3508 22.4732 37.089 22.1309 37.0013 21.7627C36.8953 21.2913 36.8702 20.3741 36.8014 15.189C36.7704 12.5604 36.7264 9.15729 36.7017 7.62709L36.6644 4.84391L36.8329 4.64325C36.9326 4.52066 37.1011 4.41107 37.2574 4.36603C37.5634 4.27546 40.5482 4.13335 41.4224 4.16538C41.7472 4.17839 42.3528 4.24294 42.7648 4.30749Z" fill="white"/>
  <path fill-rule="evenodd" clip-rule="evenodd" d="M68.5198 5.1349C70.6784 5.35525 75.0999 5.91595 75.5953 6.03595C75.9623 6.12285 76.1396 6.89044 76.0358 7.90528C75.895 9.27339 75.4304 10.2546 74.9534 10.1744C74.8614 10.1615 74.5433 10.1077 74.238 10.0679C73.9379 10.0275 73.2594 9.90754 72.7393 9.80099C70.4888 9.34684 69.2537 9.11305 69.2229 9.14667C69.2106 9.16684 69.0702 10.0477 68.9109 11.1024C68.7151 12.4441 68.6483 13.0452 68.6971 13.0715C68.7336 13.0984 69.6937 13.2453 70.8254 13.4052C71.9627 13.5655 72.9655 13.7326 73.0575 13.7859C73.3083 13.926 73.4306 14.2462 73.4609 14.8338C73.5041 15.6485 73.2898 16.6162 72.929 17.1836C72.7763 17.4304 72.7393 17.4505 72.452 17.4707C72.1462 17.4904 70.2441 17.1635 68.8683 16.8562C68.3605 16.7497 68.1343 16.7228 68.122 16.7766C68.0547 17.0031 67.7247 20.0073 67.7247 20.3678C67.7247 20.5478 67.7309 20.5545 68.0793 20.5545C69.2352 20.5545 73.3144 21.0951 73.871 21.3221C74.0052 21.3754 74.1522 21.4892 74.201 21.5689C74.3172 21.7763 74.2991 22.2899 74.146 23.1242C73.9322 24.2927 73.6444 25.0334 73.3144 25.2672C73.1186 25.4074 72.819 25.3737 71.4858 25.0603C70.1156 24.7396 68.7459 24.526 67.2596 24.3925C66.5869 24.3325 65.8164 24.2591 65.5415 24.226C64.6241 24.1122 64.031 23.6518 63.829 22.8909C63.6578 22.2366 63.737 21.2756 64.4467 15.6681C64.6667 13.9596 64.9479 11.87 65.0645 11.0289C65.3641 8.95994 65.9388 5.7556 66.0488 5.52853C66.1772 5.24818 66.6054 5.04128 67.0823 5.00818C67.1558 5.00818 67.7982 5.06146 68.5198 5.1349Z" fill="white"/>
  <path fill-rule="evenodd" clip-rule="evenodd" d="M28.2953 5.12584C31.3153 5.81457 33.8014 8.73211 34.5232 12.4421C35.0128 14.9176 34.787 17.237 33.8642 19.264C32.5832 22.0838 30.3857 23.6496 27.7112 23.643C25.8466 23.6365 24.2332 22.8637 22.739 21.2456C21.3704 19.7709 20.5478 18.036 20.1337 15.7488C20.0018 15.0017 19.9579 13.2673 20.0456 12.494C20.4787 8.86201 22.6952 5.89916 25.5016 5.19079C25.7654 5.12584 26.0413 5.05435 26.1104 5.04177C26.4808 4.95719 27.774 5.00904 28.2953 5.12584Z" fill="white"/>
  <path fill-rule="evenodd" clip-rule="evenodd" d="M83.0817 7.16875C84.9385 7.65176 85.3481 7.79995 86.3109 8.30891C87.59 8.98502 88.4782 9.78986 89.1796 10.9041C89.9869 12.2044 90.2165 13.6664 89.8501 15.1538C89.453 16.7635 88.2418 18.2061 86.5468 19.0947C85.9508 19.4036 84.5226 19.919 84.0628 19.9899C83.8953 20.0153 83.7648 20.0478 83.7648 20.0543C83.7648 20.0862 84.1625 20.8012 84.3363 21.0846C84.8268 21.8895 85.9383 23.0935 86.6835 23.6279C86.9006 23.7891 87.149 24.0206 87.2299 24.1434C87.3604 24.3429 87.3724 24.4198 87.3479 24.8C87.2795 25.8883 86.2426 27.0409 85.3356 27.0409C84.8143 27.0409 84.0007 26.5319 83.1501 25.6692C82.4049 24.9158 81.7531 23.9178 80.8649 22.1599C80.6416 21.7218 80.449 21.374 80.4365 21.387C80.4302 21.4 80.269 22.0502 80.0827 22.836C79.7101 24.4457 79.6167 24.6388 79.1449 24.8838C78.7723 25.0769 78.5547 25.0834 77.7912 24.9223C77.0768 24.7741 76.6484 24.5555 76.3504 24.2012C75.8416 23.583 75.8974 23.2417 77.487 17.2914C77.965 15.5211 78.4681 13.602 78.611 13.0352C79.1699 10.8008 80.0514 7.42023 80.1385 7.15628C80.1943 7.00808 80.2935 6.84043 80.3681 6.78254C80.604 6.6089 81.3367 6.71169 83.0817 7.16875Z" fill="white"/>
  <path fill-rule="evenodd" clip-rule="evenodd" d="M12.8694 7.63972C13.5959 7.77214 14.097 7.95075 14.8549 8.34851C16.233 9.07014 17.1789 10.382 17.6358 12.2035C17.8237 12.9385 17.8363 14.6009 17.661 15.3892C17.3979 16.6015 16.9783 17.5947 16.3204 18.5621C15.8382 19.2637 14.717 20.3965 13.9532 20.9333C13.3769 21.3439 12.3246 21.9331 11.8672 22.0989C11.7046 22.1585 11.673 22.198 11.7046 22.3242C11.8862 23.1916 12.2994 25.3775 12.2994 25.5033C12.2994 25.6891 12.0804 26.1987 11.9362 26.3712C11.6604 26.6956 10.6397 27.0266 9.88805 27.0399C9.48697 27.0466 9.33693 27.0199 9.13639 26.9009C8.62266 26.616 8.46 26.2649 8.20313 24.9536C8.02153 24.0067 6.91297 17.7076 6.34923 14.3956C6.13606 13.1571 5.85443 11.5342 5.71653 10.7859C5.58494 10.0438 5.47229 9.33549 5.47229 9.2159C5.47229 8.8982 5.72284 8.63337 6.17976 8.47426C6.63086 8.31515 9.06744 7.76547 9.88805 7.63972C10.6834 7.52065 12.2304 7.52065 12.8694 7.63972Z" fill="white"/>
  <path fill-rule="evenodd" clip-rule="evenodd" d="M54.9677 7.77093C54.955 7.89479 54.905 9.01199 54.867 10.2661C54.8296 11.5137 54.7859 12.7548 54.7606 13.008L54.7231 13.4823H54.9487C55.5948 13.4823 56.604 13.1707 57.2437 12.7739C58.5354 11.9684 59.1187 10.6171 58.6861 9.42131C58.4979 8.89518 57.9836 8.34288 57.4129 8.05691C56.83 7.76489 56.3531 7.64104 55.6069 7.58918L54.9988 7.55042L54.9677 7.77093Z" fill="#C83B50"/>
  <path fill-rule="evenodd" clip-rule="evenodd" d="M40.1571 7.57139C39.967 7.59695 39.9479 7.61649 39.9479 7.82346C39.9479 8.04998 40.0997 11.3545 40.1758 12.7516L40.2141 13.4823L40.4484 13.4372C42.2988 13.12 43.7434 11.9498 44.0091 10.5527C44.2562 9.25922 43.4202 8.08857 41.9692 7.68114C41.614 7.58442 40.5118 7.51326 40.1571 7.57139Z" fill="#C83B50"/>
  <path fill-rule="evenodd" clip-rule="evenodd" d="M25.9967 8.09152C24.5739 8.48067 23.4606 10.0186 23.1112 12.0793C22.8217 13.7446 23.1046 15.6176 23.8758 17.1216C25.2919 19.8811 27.848 20.6937 29.5935 18.9347C31.1353 17.3838 31.6425 14.4964 30.8126 11.9253C29.9561 9.25273 27.8546 7.58115 25.9967 8.09152Z" fill="#C83B50"/>
  <path fill-rule="evenodd" clip-rule="evenodd" d="M83.0514 11.9225C83.0308 12.0136 82.7509 13.2798 82.4372 14.7416C82.1161 16.2035 81.8367 17.4485 81.8161 17.5114C81.7955 17.5954 81.8367 17.6447 81.9595 17.6724C82.2938 17.7564 83.5355 17.7217 84 17.6165C85.1395 17.3439 86.0949 16.6441 86.5113 15.7698C86.7091 15.3639 86.7361 15.2381 86.7361 14.7416C86.7361 14.2728 86.7023 14.1188 86.5451 13.7833C86.0949 12.8391 84.8459 12.0694 83.3445 11.8038C83.1196 11.7686 83.0853 11.7827 83.0514 11.9225Z" fill="#C83B50"/>
  <path fill-rule="evenodd" clip-rule="evenodd" d="M10.2008 11.7948C10.0673 11.8078 9.68088 11.872 9.33643 11.9298C8.84427 12.0135 8.73145 12.0583 8.75979 12.1355C8.79467 12.2382 9.72993 16.1407 9.96211 17.15C10.0324 17.4459 10.1234 17.6965 10.173 17.7159C10.3137 17.7607 11.3187 17.3622 11.825 17.0598C12.4861 16.6548 13.0906 16.0441 13.4138 15.4398C13.6743 14.9576 13.6808 14.9322 13.6808 14.2378C13.6808 13.6076 13.6601 13.4855 13.5053 13.2026C13.1679 12.5724 12.4087 12.0518 11.5999 11.8909C11.1993 11.8142 10.5104 11.7689 10.2008 11.7948Z" fill="#C83B50"/>
</svg>
