<svg xmlns="http://www.w3.org/2000/svg" width="150" height="60" viewBox="0 0 175 70"><path fill="#00c2ca" d="M71.55 35a35 35 0 1 1-70 0 35 35 0 0 1 70 0zm0 0"></path><path fill="#fff" d="M50.79 35.47a3.43 3.43 0 0 1-.95-2.24c0-.44.15-.97.53-.97.33 0 .74.47.74 1.53a4.9 4.9 0 0 1-.32 1.68zm9.34 5.34c-.05-.41-.02-.92.1-1.5.34-1.4.41-1.77.39-1.95-.05-.35-.3-.5-.6-.5-.61 0-1.45.62-1.67 1.47-.34 1.3-1.26 2.18-1.88 2.18-.77 0-1.17-.82-1.27-1.67-.26-2.13 1.1-4.75 3.07-4.75.59 0 1.21.23 1.28.82.11.92-.85.71-.8 1.1.04.38.7.5 1.14.5.45 0 1.74-.3 1.55-1.8-.14-1.18-1.39-1.74-2.83-1.74a5.4 5.4 0 0 0-4.15 2.05c-.12.08-.26.2-.4.37a2.2 2.2 0 0 1-1.97.7c.5-.97.85-1.97.85-2.86 0-1.41-.89-2.12-1.86-2.12-1.24 0-2.5 1.1-2.5 3.21 0 1.27.5 2.3 1.38 2.86-1 1.66-2.39 3.01-2.6 3.01-.11 0-.14-.12-.17-.24-.15-.56-.3-1.65-.3-2.33 0-1.2.24-2.41.68-3.71.06-.14.1-.3.1-.41 0-.36-.24-.53-.56-.53-.66 0-1.63.73-1.86 1.5-.24.74-.33 1.74-.33 2.98l.01.67c-1.2 1.58-2.68 2.15-3.15 2.15-.58 0-.69-.48-.62-.79.3-1.49.78-3.21 1.2-4.37.2-.56.28-1.06.25-1.35-.07-.53-.45-.8-.95-.8-1.18 0-3.16 1.24-4.42 2.92l.4-1.82c.04-.17.05-.32.04-.44-.05-.35-.27-.5-.57-.5-1.44 0-1.7.73-1.83 1.44l-.8 4.08c-1.07.97-2.24 1.6-2.56 1.6-.4 0-.54-.31-.55-.54-.01-.27.29-1.54.36-1.93.03-.18.04-.32.03-.44-.04-.32-.26-.47-.59-.47-.62 0-1.46.59-1.67 1.47-.34 1.3-1.24 2.18-1.86 2.18-.77 0-1.2-.82-1.3-1.65-.21-1.82.96-4.77 3.08-4.77.59 0 1.2.2 1.28.8.11.94-.83.7-.78 1.11.04.39.7.5 1.12.5.47 0 1.73-.29 1.55-1.77-.14-1.17-1.36-1.76-2.84-1.76-3.4 0-5.68 3.32-5.47 5.98a9.7 9.7 0 0 1-3.32 2.45c-.89.44-1.89.7-2.83.7-2.83 0-4.2-2.59-4.49-4.83-.7-5.75 4.37-13.65 7.91-13.65.82 0 1.56.72 1.7 1.83.21 1.73.18 2.96-1.63 4.46-.19.16-.25.43-.15.58.16.24.64.26 1.62-.23 1.91-.96 2.6-2.45 2.39-4.17a4.08 4.08 0 0 0-4.15-3.5c-1.09 0-2.29.32-3.35.98-4.67 2.82-7.68 9.28-7.07 14.2.19 1.57.84 3.27 2.07 4.43.83.76 2.33 1.7 4.1 1.7 1.92 0 3.54-.73 4.99-1.65.98-.63 1.8-1.4 2.5-2.18a2.92 2.92 0 0 0 2.55 1.74c.83 0 1.6-.41 2.19-1.18.17.71.67 1.18 1.56 1.18.65 0 2.03-.65 3.31-1.6l-.13.68c-.03.18-.05.33-.03.45.03.32.26.47.56.47.62 0 1.52-.6 1.7-1.5l.28-1.3c.36-1.62 2.74-4.07 3.42-4.07.09 0 .16.06.17.17.05.42-.76 1.77-1.1 3.96-.07.41-.09.79-.04 1.11.12.98.7 1.63 1.76 1.63.92 0 2.87-.78 4.27-2.31.1.86.29 1.59.56 2.04.12.21.38.27.62.27.3 0 .7-.11 1.15-.35 1.06-.6 2.45-1.92 3.77-3.84.18.04.32.04.5.04.54 0 1.13-.2 1.68-.54-.2.67-.29 1.34-.21 1.98.19 1.53 1.51 2.7 2.87 2.7.8 0 1.57-.4 2.16-1.14.18.97.8 2 2.32 2.63.1.05.22.05.3.05.3 0 .48-.2.45-.44a.66.66 0 0 0-.22-.35 2.7 2.7 0 0 1-.86-1.74zm0 0"></path><path fill="#00c2ca" d="M100.42 28.8c.3-.71.1-1.2-.14-1.48-.44-.52-1.32-.76-2.15-.57a1.9 1.9 0 0 0-1.5 1.38 28.53 28.53 0 0 0-.92 6.57v.07c-.23 3-.1 6.55.29 7.58.17.45.57.64 1.13.52.79-.15 1.2-.55 1.15-1.11-.02-.3 0-2.23.22-4.5 1-4.49 4.32-5.28 6.2-5.35 1.15-.04 2.61.47 2.92 2.04.49 2.41-1.16 5.3-3.83 6.72a6.9 6.9 0 0 1-3.5.88.61.61 0 0 0-.55.36.76.76 0 0 0 .05.65c.3.53 1.23.75 1.85.9l.27.06c.38.07.77.1 1.16.1 1.72 0 3.43-.6 4.94-1.76a9.7 9.7 0 0 0 3.75-6.53c.26-2.85-.7-5.06-2.72-6.23-2.34-1.36-5.73-1.01-8.43.88a9.7 9.7 0 0 0-.84.68l.2-.57c.13-.43.26-.84.45-1.29zm54.91 8.12c-.16.45-1.04.89-2.2 1.1.12-.78.42-1.33.9-1.68h.02c.07-.08.24-.12.42-.12.23 0 .49.06.67.18.2.13.27.3.2.52zM135.87 21.7c.56.44 1.42.58 2.31.38l.03-.01a143.2 143.2 0 0 1 12.54-2.35c.08 0 .15-.02.22-.03a28.67 28.67 0 0 0-7.7 6.63 20.4 20.4 0 0 0-4.35 9.52 11.57 11.57 0 0 0 1.03 7.1 9.15 9.15 0 0 0 5.56 4.41c1.56.48 3.17.7 4.78.7 4.25 0 8.42-1.6 11.26-4.51a9.9 9.9 0 0 0 2.58-8.26 7.2 7.2 0 0 0-3.7-5.51 10.92 10.92 0 0 0-9.8.31c-2.44 1.35-4.31 3.81-4.67 6.13-.19 1.28.07 2.34.77 3.15.88 1.01 2.38 1.57 4.25 1.59.1.4.22.8.33 1.17l.05.15c.1.33.46.5.92.42.43-.06.86-.35.86-.76 0-.36 0-.76-.03-1.2a7.5 7.5 0 0 0 3.77-1.89c.66-.64.9-1.46.66-2.28a3.34 3.34 0 0 0-2.54-2.19c-2.07-.44-3.59.18-4.04 1.65-.19.6-.29 1.28-.3 2.03-.55-.1-1.35-.38-1.42-1.06-.17-1.83.98-3.67 2.94-4.7a7.3 7.3 0 0 1 6.05.01c.8.4 1.8 1.18 2 2.58.42 2.26-.23 4.5-1.7 5.83-2.01 1.88-5.58 3.04-8.9 2.88-2.47-.13-4.52-.98-5.79-2.41-.9-1.25-1.18-3.07-.81-5.57.49-3.38 2.6-7.05 5.97-10.32a28.61 28.61 0 0 1 10.36-6.52l.94-.07.38-.03 1.21-.07.8-.04.82-.04c.8-.03 1.42-.65 1.54-1.55.07-.49-.02-.88-.26-1.17-.26-.3-.72-.48-1.3-.5l-.84-.02-.83-.01-1.27-.01h-.38a137.93 137.93 0 0 0-16.4 1.03 142.2 142.2 0 0 0-6.7.96c-1.3.3-1.87 1.2-1.86 2.95 0 .64.23 1.16.66 1.5zm0 0"></path><path fill="#00c2ca" d="M123.71 15.67l-.52-.06-.52-.05h-.1l-.93-.1-2-.13h-.04l-1.35-.08-.7-.03-2.05-.06c-2.66-.06-5.43-.02-8.21.13l-1.55.08-.33.02-.18.02-2.06.17-.76.08c-.1 0-.18.02-.27.03l-2.05.23-.67.1-.36.05-2.06.3-3.07.57-3.06.7-.16.04c-1.39.43-1.66 1.45-1.66 3.07 0 .58.24 1.05.68 1.38.6.45 1.56.57 2.43.3l2.9-.88 2.83-.74 1.93-.42.34-.08c.2-.04.41-.1.62-.13l1.94-.36.26-.05c.23-.04.47-.09.72-.12l1.95-.3.18-.03.31-.04 1.48-.19c2.57-.32 5.13-.54 7.62-.67.19.95.37 1.94.55 2.91.9 5.67 1.64 11.69.95 17.21a21.54 21.54 0 0 1-2.43 7.9 14.7 14.7 0 0 1-5.9 5.8c-4.37 2.22-9.48 2.1-13.93 1.81h-.02c-.3.02-.54.22-.62.55-.1.4.03.85.3 1.02 1.3.85 6.33 1.18 7.04 1.18h.02l1.09.02c6.1 0 10.9-2.07 14.26-6.16 2.99-3.64 4.75-8.74 5.26-15.15.42-5.32-.11-11.43-1.48-17.22a40.1 40.1 0 0 1 2.06.02h.11l.5.01.52.02c.65.03 1.22-.46 1.38-1.18.08-.4.03-.73-.15-.99-.2-.28-.56-.45-1.04-.5zm48.12 20.15a15.26 15.26 0 0 1-1.55 5.8 20.5 20.5 0 0 1-.65-4.26c-.13-3.25.36-4.05.8-4.15a.8.8 0 0 1 .73.18c.48.41.74 1.36.67 2.43zm2.92 16.08a20.43 20.43 0 0 1-2.87-5.44c.98-1.58 1.7-3.3 2.17-5.1.66-2.7 1.5-6.06-.43-8.91a3.06 3.06 0 0 0-3.08-1.39 3.76 3.76 0 0 0-2.9 2.88c-.92 3.5-.84 7.6.22 11.29a20.81 20.81 0 0 1-12.46 6.69c-3.04.58-6.45.6-9.6.01a19.86 19.86 0 0 1-8.7-3.7 12.37 12.37 0 0 1-4.88-9.54.6.6 0 0 0-.44-.54.54.54 0 0 0-.46.08c-.5.37-.63 1.57-.72 2.77l-.05.51c-.15 3.06.97 6.24 3.07 8.7a20.36 20.36 0 0 0 7.75 5.24 26.12 26.12 0 0 0 9.34 1.68h.04c7.4 0 14.45-2.9 18.9-7.72a12.3 12.3 0 0 0 3.72 4.06c.47.32.98.12 1.28-.2.3-.34.47-.91.1-1.37zm0 0"></path></svg>